<svg width="90" height="99" viewBox="0 0 90 99" fill="none" xmlns="http://www.w3.org/2000/svg">
<g id="cadeado aberto com splash" clip-path="url(#clip0_1_84)">
<path id="splash" d="M75.81 45.15L89.47 41.12L75.51 37.01L87.48 28.72L73.24 29.19L81.93 17.9L68.21 22.77L73.02 9.03999L61.78 17.78L62.17 3.53999L53.95 15.55L49.76 1.60999L45.8 15.3L37.75 3.53999L38.15 18.09L26.58 9.26999L31.42 22.67L18 17.9L26.87 29.43L12.32 29.1L24.12 37.09L10.45 41.12L24.41 45.23L12.45 53.52L26.69 53.05L18 64.34L31.71 59.46L26.9 73.2L38.15 64.45L37.75 78.7L45.98 66.69L50.16 80.63L54.12 66.94L62.17 78.7L61.77 64.15L73.35 72.97L68.5 59.57L81.93 64.34L73.05 52.81L87.6 53.14L75.81 45.15Z" fill="white"/>
<g id="Group">
<g id="box">
<path id="Vector" d="M57.8 94.89V98.28H16.61V45.58H19.78V94.89H57.8Z" fill="#0CB1F5"/>
<path id="Vector_2" d="M37.46 72.15C37.95 72.13 38.42 72.05 38.87 71.92C38.44 71.79 38.02 71.61 37.64 71.39L37.46 72.15Z" fill="#11358F"/>
<path id="Vector_3" d="M16.61 45.59V98.29H6.43C2.88 98.29 0 95.41 0 91.86V50.26H7.6V45.6H16.6L16.61 45.59ZM41.61 70.17C42.06 69.66 42.42 69.07 42.68 68.43C42.94 67.76 43.09 67.04 43.09 66.28C43.09 63.03 40.45 60.39 37.2 60.39C36.12 60.39 35.12 60.68 34.25 61.19C32.49 62.21 31.31 64.1 31.31 66.28C31.31 68.46 32.51 70.38 34.29 71.4L31.6 82.67H42.79L40.1 71.4C40.67 71.08 41.17 70.66 41.6 70.18L41.61 70.17Z" fill="#11358F"/>
<path id="Vector_4" d="M21.48 45.59H19.78V94.89H57.8V45.59H21.48ZM43.8 72.84L46.15 82.67H31.61L34.3 71.4C32.52 70.39 31.32 68.48 31.32 66.28C31.32 64.08 32.5 62.21 34.26 61.19C35.13 60.69 36.13 60.39 37.21 60.39H40.55C43.8 60.39 46.44 63.03 46.44 66.28C46.44 68.47 45.24 70.38 43.46 71.4L43.8 72.84ZM55.65 85.54H53.5V50.45H21.48V47.45H55.65V85.54ZM7.6 50.25H0V45.59H7.6V50.25Z" fill="#4CE0DC"/>
<path id="Vector_5" d="M43.79 72.83L46.1399 82.67H42.7999L40.29 72.15L40.11 71.39C40.67 71.07 41.18 70.65 41.61 70.17C42.06 69.66 42.43 69.07 42.68 68.42C42.94 67.76 43.09 67.03 43.09 66.28C43.09 63.02 40.45 60.39 37.2 60.39H40.5499C43.7999 60.39 46.43 63.02 46.43 66.28C46.43 68.47 45.23 70.38 43.45 71.39L43.79 72.83Z" fill="white"/>
<path id="Vector_6" d="M21.48 47.44V50.45H53.5V85.53H55.65V47.44H21.48Z" fill="white"/>
</g>
<g id="check">
<path id="Vector_7" d="M49.43 23.39V36.59H47.43V23.39H49.43ZM48.33 20.21C48.17 18.72 47.84 17.25 47.33 15.84C47.14 15.32 46.57 15.05 46.05 15.24C46.04 15.24 46.03 15.25 46.02 15.26C45.52 15.46 45.26 16.01 45.45 16.52C45.9 17.78 46.2 19.09 46.34 20.42C46.39 20.93 46.83 21.32 47.33 21.32C47.35 21.32 47.37 21.32 47.38 21.32C47.4 21.32 47.41 21.32 47.43 21.32C47.98 21.26 48.38 20.77 48.32 20.22L48.33 20.21Z" fill="#4CE0DC"/>
<path id="Vector_8" d="M47.39 21.32C47.39 21.32 47.35 21.32 47.34 21.32C46.83 21.32 46.4 20.94 46.35 20.42C46.21 19.09 45.91 17.77 45.46 16.52C45.28 16.01 45.54 15.46 46.03 15.26C44.61 11.92 42.18 9.12 39.13 7.21C37.39 6.12 35.45 5.32 33.37 4.89C32.64 4.74 31.89 4.64 31.12 4.59C31.08 5.12 30.67 5.57 30.11 5.52H29.77C25.83 5.52 22.01 6.92 19.01 9.46C18.82 9.62 18.59 9.7 18.36 9.7C18.13 9.7 17.94 9.61 17.76 9.47C17.21 10 16.68 10.56 16.19 11.16C16.5 11.5 16.56 12.02 16.27 12.41C15.48 13.5 14.83 14.67 14.32 15.91C14.16 16.3 13.79 16.53 13.39 16.53C13.32 16.53 13.26 16.5 13.19 16.49C12.49 18.43 12.09 20.5 12.09 22.65V27.35H10.09V41.14H7.59003V51.78H16.59V22.57C16.59 15.49 22.02 9.39 29.09 9.04C36.65 8.67 42.92 14.71 42.92 22.19V36.61H47.42V22.19C47.42 21.9 47.39 21.62 47.38 21.34L47.39 21.32Z" fill="#11358F"/>
<path id="Vector_9" d="M16.19 11.14C16.5 11.48 16.56 12 16.27 12.39C15.48 13.48 14.83 14.65 14.32 15.89C14.16 16.28 13.79 16.51 13.39 16.51C13.32 16.51 13.26 16.48 13.19 16.47C13.13 16.46 13.07 16.46 13.01 16.43C12.5 16.22 12.25 15.64 12.46 15.13C13.02 13.74 13.76 12.42 14.64 11.21C14.96 10.76 15.59 10.66 16.04 10.99C16.1 11.03 16.13 11.09 16.18 11.14H16.19ZM30.16 3.51001H29.77C25.36 3.51001 21.08 5.07001 17.71 7.92001C17.29 8.28001 17.24 8.91001 17.59 9.33001C17.64 9.38001 17.7 9.41001 17.75 9.45001C17.93 9.59001 18.13 9.68001 18.35 9.68001C18.57 9.68001 18.81 9.60001 19 9.44001C22 6.90001 25.82 5.50001 29.76 5.50001H30.1C30.66 5.55001 31.08 5.11001 31.11 4.57001C31.11 4.55001 31.11 4.54001 31.11 4.53001C31.12 3.98001 30.69 3.52001 30.13 3.51001H30.16Z" fill="white"/>
<path id="Vector_10" d="M51.93 22.16V36.58C51.93 37.79 50.95 38.76 49.75 38.76H45.12C43.91 38.76 42.94 37.78 42.94 36.58H49.44V23.38H47.44V22.15C47.44 21.86 47.41 21.58 47.4 21.3C47.42 21.3 47.43 21.3 47.45 21.3C48 21.24 48.4 20.75 48.34 20.2C48.18 18.71 47.85 17.24 47.34 15.83C47.15 15.31 46.58 15.04 46.06 15.23C46.05 15.23 46.04 15.24 46.03 15.25C44.61 11.91 42.18 9.11 39.13 7.2C37.39 6.11 35.45 5.31 33.37 4.88C32.64 4.73 31.89 4.63 31.12 4.58C31.12 4.56 31.12 4.55 31.12 4.54C31.13 3.99 30.7 3.53 30.14 3.52H29.75C25.34 3.52 21.06 5.08 17.69 7.93C17.27 8.29 17.22 8.92 17.57 9.34C17.62 9.39 17.68 9.42 17.73 9.46C17.18 9.99 16.65 10.55 16.16 11.15C16.11 11.1 16.08 11.04 16.02 11C15.57 10.68 14.95 10.78 14.62 11.22C13.74 12.44 13 13.76 12.44 15.14C12.23 15.65 12.48 16.23 12.99 16.44C13.05 16.46 13.11 16.46 13.17 16.48C12.47 18.42 12.07 20.49 12.07 22.64V27.34H10.07V41.13H7.57001V22.72C7.60001 10.71 16.92 0.47 28.91 0.0199995C41.52 -0.46 51.93 9.66 51.93 22.17V22.16Z" fill="#0CB1F5"/>
</g>
</g>
</g>
<defs>
<clipPath id="clip0_1_84">
<rect width="99.47" height="98.28" fill="white"/>
</clipPath>
</defs>
</svg>
