<svg width="138" height="111" viewBox="0 0 138 111" fill="none" xmlns="http://www.w3.org/2000/svg">
<g id="Frame 1">
<path id="splash" d="M106.81 50.1464L120.47 46.1164L106.51 42.0064L118.48 33.7164L104.24 34.1864L112.93 22.8964L99.2099 27.7664L104.02 14.0364L92.7799 22.7764L93.1699 8.53638L84.95 20.5464L80.7599 6.60638L76.7999 20.2964L68.75 8.53638L69.15 23.0864L57.58 14.2664L62.42 27.6664L49 22.8964L57.87 34.4264L43.32 34.0964L55.12 42.0864L41.45 46.1164L55.41 50.2264L43.45 58.5164L57.69 58.0464L49 69.3364L62.7099 64.4564L57.9 78.1964L69.15 69.4464L68.75 83.6964L76.9799 71.6864L81.16 85.6264L85.1199 71.9364L93.1699 83.6964L92.77 69.1464L104.35 77.9664L99.5 64.5664L112.93 69.3364L104.05 57.8064L118.6 58.1364L106.81 50.1464Z" fill="white"/>
<g id="box">
<path id="Vector" d="M97.8 100.886V104.276H56.61V51.5764H59.78V100.886H97.8Z" fill="#0CB1F5"/>
<path id="Vector_2" d="M77.46 78.1464C77.95 78.1264 78.42 78.0464 78.87 77.9164C78.44 77.7864 78.02 77.6064 77.64 77.3864L77.46 78.1464Z" fill="#11358F"/>
<path id="Vector_3" d="M56.61 51.5864V104.286H46.43C42.88 104.286 40 101.406 40 97.8564V56.2564H47.6V51.5964H56.6L56.61 51.5864ZM81.61 76.1664C82.06 75.6564 82.42 75.0664 82.68 74.4264C82.94 73.7564 83.09 73.0364 83.09 72.2764C83.09 69.0264 80.45 66.3864 77.2 66.3864C76.12 66.3864 75.12 66.6764 74.25 67.1864C72.49 68.2064 71.31 70.0964 71.31 72.2764C71.31 74.4564 72.51 76.3764 74.29 77.3964L71.6 88.6664H82.79L80.1 77.3964C80.67 77.0764 81.17 76.6564 81.6 76.1764L81.61 76.1664Z" fill="#11358F"/>
<path id="Vector_4" d="M61.48 51.5864H59.78V100.886H97.8V51.5864H61.48ZM83.8 78.8364L86.15 88.6664H71.61L74.3 77.3964C72.52 76.3864 71.32 74.4764 71.32 72.2764C71.32 70.0764 72.5 68.2064 74.26 67.1864C75.13 66.6864 76.13 66.3864 77.21 66.3864H80.55C83.8 66.3864 86.44 69.0264 86.44 72.2764C86.44 74.4664 85.24 76.3764 83.46 77.3964L83.8 78.8364ZM95.65 91.5364H93.5V56.4464H61.48V53.4464H95.65V91.5364ZM47.6 56.2464H40V51.5864H47.6V56.2464Z" fill="#4CE0DC"/>
<path id="Vector_5" d="M83.79 78.8264L86.1399 88.6664H82.7999L80.29 78.1464L80.11 77.3864C80.67 77.0664 81.18 76.6464 81.61 76.1664C82.06 75.6564 82.43 75.0664 82.68 74.4164C82.94 73.7564 83.09 73.0264 83.09 72.2764C83.09 69.0164 80.45 66.3864 77.2 66.3864H80.5499C83.7999 66.3864 86.43 69.0164 86.43 72.2764C86.43 74.4664 85.23 76.3764 83.45 77.3864L83.79 78.8264Z" fill="white"/>
<path id="Vector_6" d="M61.48 53.4364V56.4464H93.5V91.5264H95.65V53.4364H61.48Z" fill="white"/>
</g>
<g id="check">
<path id="Vector_7" d="M89.43 29.3864V42.5864H87.43V29.3864H89.43ZM88.33 26.2064C88.17 24.7164 87.84 23.2464 87.33 21.8364C87.14 21.3164 86.57 21.0464 86.05 21.2364C86.04 21.2364 86.03 21.2464 86.02 21.2564C85.52 21.4564 85.26 22.0064 85.45 22.5164C85.9 23.7764 86.2 25.0864 86.34 26.4164C86.39 26.9264 86.83 27.3164 87.33 27.3164C87.35 27.3164 87.37 27.3164 87.38 27.3164C87.4 27.3164 87.41 27.3164 87.43 27.3164C87.98 27.2564 88.38 26.7664 88.32 26.2164L88.33 26.2064Z" fill="#4CE0DC"/>
<path id="Vector_8" d="M87.39 27.3164C87.39 27.3164 87.35 27.3164 87.34 27.3164C86.83 27.3164 86.4 26.9364 86.35 26.4164C86.21 25.0864 85.91 23.7664 85.46 22.5164C85.28 22.0064 85.54 21.4564 86.03 21.2564C84.61 17.9164 82.18 15.1164 79.13 13.2064C77.39 12.1164 75.45 11.3164 73.37 10.8864C72.64 10.7364 71.89 10.6364 71.12 10.5864C71.08 11.1164 70.67 11.5664 70.11 11.5164H69.77C65.83 11.5164 62.01 12.9164 59.01 15.4564C58.82 15.6164 58.59 15.6964 58.36 15.6964C58.13 15.6964 57.94 15.6064 57.76 15.4664C57.21 15.9964 56.68 16.5564 56.19 17.1564C56.5 17.4964 56.56 18.0164 56.27 18.4064C55.48 19.4964 54.83 20.6664 54.32 21.9064C54.16 22.2964 53.79 22.5264 53.39 22.5264C53.32 22.5264 53.26 22.4964 53.19 22.4864C52.49 24.4264 52.09 26.4964 52.09 28.6464V33.3464H50.09V47.1364H47.59V57.7764H56.59V28.5664C56.59 21.4864 62.02 15.3864 69.09 15.0364C76.65 14.6664 82.92 20.7064 82.92 28.1864V42.6064H87.42V28.1864C87.42 27.8964 87.39 27.6164 87.38 27.3364L87.39 27.3164Z" fill="#11358F"/>
<path id="Vector_9" d="M56.19 17.1364C56.5 17.4764 56.56 17.9964 56.27 18.3864C55.48 19.4764 54.83 20.6464 54.32 21.8864C54.16 22.2764 53.79 22.5064 53.39 22.5064C53.32 22.5064 53.26 22.4764 53.19 22.4664C53.13 22.4564 53.07 22.4564 53.01 22.4264C52.5 22.2164 52.25 21.6364 52.46 21.1264C53.02 19.7364 53.76 18.4164 54.64 17.2064C54.96 16.7564 55.59 16.6564 56.04 16.9864C56.1 17.0264 56.13 17.0864 56.18 17.1364H56.19ZM70.16 9.50641H69.77C65.36 9.50641 61.08 11.0664 57.71 13.9164C57.29 14.2764 57.24 14.9064 57.59 15.3264C57.64 15.3764 57.7 15.4064 57.75 15.4464C57.93 15.5864 58.13 15.6764 58.35 15.6764C58.57 15.6764 58.81 15.5964 59 15.4364C62 12.8964 65.82 11.4964 69.76 11.4964H70.1C70.66 11.5464 71.08 11.1064 71.11 10.5664C71.11 10.5464 71.11 10.5364 71.11 10.5264C71.12 9.97641 70.69 9.51641 70.13 9.50641H70.16Z" fill="white"/>
<path id="Vector_10" d="M91.9299 28.1564V42.5764C91.9299 43.7864 90.9499 44.7564 89.7499 44.7564H85.1199C83.9099 44.7564 82.9399 43.7764 82.9399 42.5764H89.4399V29.3764H87.4399V28.1464C87.4399 27.8564 87.4099 27.5764 87.3999 27.2964C87.4199 27.2964 87.4299 27.2964 87.4499 27.2964C87.9999 27.2364 88.3999 26.7464 88.3399 26.1964C88.1799 24.7064 87.8499 23.2364 87.3399 21.8264C87.1499 21.3064 86.5799 21.0364 86.0599 21.2264C86.0499 21.2264 86.0399 21.2364 86.0299 21.2464C84.6099 17.9064 82.1799 15.1064 79.1299 13.1964C77.3899 12.1064 75.4499 11.3064 73.3699 10.8764C72.6399 10.7264 71.8899 10.6264 71.1199 10.5764C71.1199 10.5564 71.1199 10.5464 71.1199 10.5364C71.1299 9.9864 70.6999 9.5264 70.1399 9.5164H69.7499C65.3399 9.5164 61.0599 11.0764 57.6899 13.9264C57.2699 14.2864 57.2199 14.9164 57.5699 15.3364C57.6199 15.3864 57.6799 15.4164 57.7299 15.4564C57.1799 15.9864 56.6499 16.5464 56.1599 17.1464C56.1099 17.0964 56.0799 17.0364 56.0199 16.9964C55.5699 16.6764 54.9499 16.7764 54.6199 17.2164C53.7399 18.4364 52.9999 19.7564 52.4399 21.1364C52.2299 21.6464 52.4799 22.2264 52.9899 22.4364C53.0499 22.4564 53.1099 22.4564 53.1699 22.4764C52.4699 24.4164 52.0699 26.4864 52.0699 28.6364V33.3364H50.0699V47.1264H47.5699V28.7164C47.5999 16.7064 56.9199 6.4664 68.9099 6.0164C81.5199 5.5364 91.9299 15.6564 91.9299 28.1664V28.1564Z" fill="#0CB1F5"/>
</g>
</g>
</svg>
