<svg width="160" height="160" viewBox="0 0 80 40" fill="none" xmlns="http://www.w3.org/2000/svg">
<path  class="gear" d="M30.5169 30.8694L23.5 26.9258L23 27.5L30 31.4062L21.9994 35.9062L12 30L15.4811 27.9389L22.5053 31.9062L23.5 31.4062L16.2784 27.3337L24.0026 22.9062L34.5 28.9258L30.5169 30.8694Z" fill="white"/>
<path d="M34 15.1259V27L30.4972 24.9205V16.611L29.4994 16.0113V24.3219L26.5006 22.5428L26.5 14.5L25.5 14L25.4987 21.9483L22 19.872V8L34 15.1259Z" fill="white"/>
<path class="gear" d="M10 14.8826L20 9V13.5L13.0005 17.5V23.1174L17.0005 20.7652L17 20L14 21.5L14.001 17.8249L20 14.2987V23.1236L10.001 29L10 14.8826Z" fill="white"/>
<path  class="gear" d="M36 14.0008L22 6L8 14.0008V30.0003L22 38L36 30.0003V14.0008ZM34.0007 15.1433V26.5747L30.4989 24.5727V16.573L29.5013 15.9957V23.9964L26.5035 22.2836V14.2829L25.5018 13.7106V21.7113L22.0041 19.7124V8.28305L34.0007 15.1433ZM9.99927 15.1433L20.0007 9.42861V13.4285L13.0002 17.4284V23.143L17.0008 20.858V19.7144L14.0009 21.4272V18.0016L20.0007 14.5761V23.1491L10.0003 28.8577L9.99927 15.1433ZM30.5193 30.8446L23.5025 26.8568L22.5069 27.425L29.5187 31.4178L22.001 35.7159L12.0006 30.0003L15.482 28.0104L22.5059 31.9982L23.5056 31.4269L16.4816 27.4371L24.0044 23.143L34.0028 28.8567L30.5193 30.8446Z" fill="url(#paint0_linear_327_3340)"/>
<defs>
<linearGradient id="paint0_linear_327_3340" x1="22" y1="6.71635" x2="22" y2="37.2202" gradientUnits="userSpaceOnUse">
<stop offset="0.22" stop-color="#0095D9"/>
<stop offset="0.51" stop-color="#6E2FD1"/>
<stop offset="0.79" stop-color="#EE1C25"/>
</linearGradient>
</defs>
</svg>
