<svg width="94" height="32" viewBox="0 0 94 32" fill="none" xmlns="http://www.w3.org/2000/svg">
<path d="M27.713 8.00076L13.8565 0L0 8.00076V24.0003L13.8565 32L27.713 24.0003V8.00076ZM25.7342 9.14329V20.5747L22.2683 18.5727V10.573L21.2809 9.99566V17.9964L18.3138 16.2836V8.28286L17.3224 7.71059V15.7113L13.8605 13.7124V2.28305L25.7342 9.14329ZM1.97878 9.14329L11.8777 3.42861V7.42848L4.94896 11.4284V17.143L8.90854 14.858V13.7144L5.93936 15.4272V12.0016L11.8777 8.57605V17.1491L1.97979 22.8577L1.97878 9.14329ZM22.2885 24.8446L15.3436 20.8568L14.3582 21.425L21.2981 25.4178L13.8575 29.7159L3.95957 24.0003L7.40531 22.0104L14.3572 25.9982L15.3466 25.4269L8.3947 21.4371L15.8403 17.143L25.7362 22.8567L22.2885 24.8446Z" fill="url(#paint0_linear_313_866)"/>
<path d="M38.3343 17.942H39.6492V20.087C39.6556 20.312 39.6035 20.5349 39.498 20.7338C39.3988 20.9126 39.2463 21.0559 39.0618 21.1439C38.8518 21.2354 38.6253 21.283 38.3963 21.2839C38.1673 21.2848 37.9405 21.2388 37.7298 21.1489C37.5513 21.0668 37.4027 20.9312 37.3046 20.761C37.2045 20.5817 37.154 20.3789 37.1585 20.1736V12.0439C37.1531 11.7991 37.2009 11.5561 37.2986 11.3316C37.3836 11.1403 37.524 10.9789 37.7016 10.8681C37.889 10.7574 38.1037 10.7015 38.3212 10.7069C38.5197 10.7025 38.7156 10.7527 38.8875 10.852C39.0508 10.9519 39.1803 11.0987 39.2592 11.2731C39.3501 11.4782 39.3941 11.7008 39.3882 11.925V13.134H42.1367V11.925C42.1367 11.1062 41.9859 10.401 41.6844 9.80921C41.3974 9.23542 40.9399 8.76451 40.3746 8.46114C39.8023 8.1515 39.1175 7.99701 38.3202 7.99768C37.5082 7.99768 36.811 8.15754 36.2286 8.47726C35.6514 8.79162 35.186 9.27744 34.8967 9.86765C34.591 10.4722 34.4382 11.1966 34.4382 12.0409V20.1716C34.4382 20.9696 34.5947 21.656 34.9077 22.231C35.2125 22.7983 35.6851 23.2575 36.2608 23.5458C36.8506 23.8481 37.5585 23.9992 38.3847 23.9992C39.1968 23.9992 39.894 23.8427 40.4763 23.5297C41.0493 23.2269 41.5145 22.7542 41.8083 22.1766C42.1139 21.5868 42.2667 20.8816 42.2667 20.0608V15.3748H38.3343V17.942Z" fill="#40465B"/>
<path d="M49.138 16.6796L46.5396 8.16199H43.9734V23.8391H46.4096V14.4903L48.469 21.0684H49.8059L51.9197 14.1175V23.8391H54.3025V8.16199H51.8009L49.138 16.6796Z" fill="#40465B"/>
<path d="M62.1935 16.3077C61.7255 15.959 61.2256 15.6554 60.7003 15.401C60.6783 15.3862 60.6551 15.3734 60.6308 15.3627C60.6056 15.3526 60.5784 15.3395 60.5502 15.3254L60.383 15.2448C60.3286 15.2196 60.2732 15.1924 60.2157 15.1632C59.7222 14.9326 59.2416 14.6753 58.776 14.3924C58.4299 14.176 58.131 13.8919 57.8974 13.5572C57.6526 13.195 57.5282 12.7649 57.5418 12.328V11.5623C57.5418 10.851 57.7305 10.3173 58.108 9.96134C58.4855 9.60535 59.0514 9.42736 59.8057 9.42736C60.5244 9.42736 61.0617 9.61442 61.4177 9.98855C61.7737 10.3627 61.9534 10.9232 61.9567 11.6701V12.4892H63.4962V11.6701C63.4962 10.8507 63.3595 10.1696 63.0862 9.62684C62.8241 9.09483 62.3913 8.66597 61.857 8.40875C61.3109 8.14007 60.6281 8.00574 59.8087 8.00574C58.9604 8.00574 58.2551 8.14007 57.6929 8.40875C57.1486 8.65874 56.7043 9.0846 56.4315 9.61778C56.1507 10.1551 56.0103 10.8268 56.0103 11.6328V12.3985C56.0103 13.1179 56.1594 13.7201 56.4577 14.205C56.7355 14.6622 57.1087 15.0539 57.5518 15.3536C58.1016 15.7101 58.6737 16.0308 59.2646 16.3138L59.4158 16.3894L59.4641 16.4155C59.4828 16.4268 59.5028 16.436 59.5236 16.4428C59.988 16.6686 60.4364 16.9261 60.8656 17.2135C61.2101 17.4493 61.502 17.7539 61.723 18.1082C61.9546 18.4973 62.0706 18.9442 62.0575 19.3968V20.3247C62.0575 21.0797 61.8724 21.6439 61.5023 22.0174C61.1322 22.3908 60.5734 22.5776 59.8258 22.5776C59.0561 22.5776 58.4828 22.3908 58.106 22.0174C57.7292 21.6439 57.5404 21.0797 57.5397 20.3247V19.5479H56.0083V20.3247C56.0083 21.1435 56.1487 21.8263 56.4294 22.373C56.6997 22.9104 57.1425 23.3414 57.6868 23.5972C58.2511 23.8659 58.961 24.0002 59.8167 24.0002C60.6584 24.0002 61.3572 23.8635 61.9134 23.5901C62.4549 23.3324 62.8952 22.9017 63.1648 22.366C63.4408 21.8239 63.5792 21.1432 63.5799 20.3237V19.3313C63.5799 18.62 63.4502 18.0155 63.1909 17.5178C62.9514 17.0461 62.6108 16.6329 62.1935 16.3077Z" fill="#40465B"/>
<path d="M70.6738 20.4004C70.6738 21.0976 70.5059 21.6185 70.1701 21.9631C69.8342 22.3076 69.3274 22.4803 68.6497 22.4809C67.9814 22.4809 67.4803 22.3083 67.1465 21.9631C66.8126 21.6178 66.6447 21.0969 66.6427 20.4004V8.16199H65.0891V20.3248C65.0891 21.1436 65.2201 21.8264 65.482 22.3731C65.7278 22.9017 66.1435 23.3327 66.6629 23.5973C67.1881 23.8659 67.8494 24.0003 68.6467 24.0003C69.444 24.0003 70.1073 23.8636 70.6365 23.5902C71.1575 23.3244 71.5761 22.8941 71.8274 22.3661C72.0961 21.824 72.2304 21.1433 72.2304 20.3238V8.16199H70.6738V20.4004Z" fill="#40465B"/>
<path d="M75.8385 8.16199H74.2859V23.8391H75.8385V8.16199Z" fill="#40465B"/>
<path d="M78.0066 9.60678H81.0362V23.8391H82.5888V9.60678H85.6184V8.16199H78.0066V9.60678Z" fill="#40465B"/>
<path d="M93.8559 9.60678V8.16199H88.6803H88.1957H87.1277V23.8391H88.1957H88.6803H93.8559V22.3943H88.6803V16.7773H93.3169V15.3325H88.6803V9.60678H93.8559Z" fill="#40465B"/>
<defs>
<linearGradient id="paint0_linear_313_866" x1="13.8565" y1="0.71635" x2="13.8565" y2="31.2202" gradientUnits="userSpaceOnUse">
<stop offset="0.22" stop-color="#0095D9"/>
<stop offset="0.51" stop-color="#6E2FD1"/>
<stop offset="0.79" stop-color="#EE1C25"/>
</linearGradient>
</defs>
</svg>
