<svg width="60" height="52" viewBox="0 0 60 52" fill="none" xmlns="http://www.w3.org/2000/svg">
<path d="M41.713 8.00076L27.8565 0L14 8.00076V24.0003L27.8565 32L41.713 24.0003V8.00076ZM39.7342 9.14329V20.5747L36.2683 18.5727V10.573L35.2809 9.99566V17.9964L32.3138 16.2836V8.28286L31.3224 7.71059V15.7113L27.8605 13.7124V2.28305L39.7342 9.14329ZM15.9788 9.14329L25.8777 3.42861V7.42848L18.949 11.4284V17.143L22.9085 14.858V13.7144L19.9394 15.4272V12.0016L25.8777 8.57605V17.1491L15.9798 22.8577L15.9788 9.14329ZM36.2885 24.8446L29.3436 20.8568L28.3582 21.425L35.2981 25.4178L27.8575 29.7159L17.9596 24.0003L21.4053 22.0104L28.3572 25.9982L29.3466 25.4269L22.3947 21.4371L29.8403 17.143L39.7362 22.8567L36.2885 24.8446Z" fill="url(#paint0_linear_501_3145)"/>
<path d="M4.33433 45.9421H5.64915V48.0871C5.65561 48.3122 5.60353 48.535 5.49802 48.7339C5.39882 48.9127 5.24631 49.056 5.06177 49.144C4.8518 49.2355 4.62535 49.2831 4.39631 49.284C4.16727 49.2849 3.94047 49.2389 3.72982 49.149C3.55132 49.0669 3.40275 48.9314 3.30464 48.7611C3.20449 48.5818 3.15405 48.3791 3.15855 48.1737V40.044C3.15313 39.7992 3.20092 39.5562 3.2986 39.3317C3.38363 39.1404 3.52399 38.979 3.70161 38.8682C3.88897 38.7575 4.10367 38.7017 4.32123 38.707C4.5197 38.7026 4.71556 38.7528 4.88746 38.8521C5.0508 38.9521 5.18033 39.0988 5.25924 39.2733C5.35006 39.4783 5.39411 39.701 5.3882 39.9251V41.1342H8.13673V39.9251C8.13673 39.1064 7.98594 38.4011 7.68435 37.8093C7.3974 37.2355 6.93986 36.7646 6.37457 36.4613C5.8023 36.1516 5.11751 35.9971 4.32023 35.9978C3.50816 35.9978 2.81095 36.1577 2.2286 36.4774C1.65135 36.7917 1.18595 37.2776 0.896658 37.8678C0.591042 38.4723 0.438232 39.1967 0.438232 40.041V48.1717C0.438232 48.9697 0.594735 49.6561 0.907739 50.2311C1.21245 50.7984 1.68505 51.2576 2.26084 51.5459C2.85058 51.8482 3.55854 51.9993 4.38471 51.9993C5.19677 51.9993 5.89398 51.8428 6.47633 51.5298C7.04929 51.227 7.51454 50.7544 7.80828 50.1767C8.11389 49.587 8.2667 48.8817 8.2667 48.0609V43.3749H4.33433V45.9421Z" fill="#40465B"/>
<path d="M15.138 44.6795L12.5396 36.1619H9.97339V51.839H12.4096V42.4901L14.469 49.0683H15.8059L17.9197 42.1173V51.839H20.3025V36.1619H17.8009L15.138 44.6795Z" fill="#40465B"/>
<path d="M28.1935 44.3079C27.7255 43.9592 27.2256 43.6555 26.7003 43.4011C26.6783 43.3863 26.6551 43.3735 26.6308 43.3628C26.6056 43.3527 26.5784 43.3396 26.5502 43.3255L26.383 43.2449C26.3286 43.2197 26.2732 43.1925 26.2157 43.1633C25.7222 42.9327 25.2416 42.6754 24.776 42.3926C24.4299 42.1761 24.131 41.892 23.8974 41.5573C23.6526 41.1952 23.5282 40.7651 23.5418 40.3281V39.5624C23.5418 38.8511 23.7305 38.3175 24.108 37.9615C24.4855 37.6055 25.0514 37.4275 25.8057 37.4275C26.5244 37.4275 27.0617 37.6145 27.4177 37.9887C27.7737 38.3628 27.9534 38.9233 27.9567 39.6702V40.4893H29.4962V39.6702C29.4962 38.8508 29.3595 38.1697 29.0862 37.627C28.8241 37.095 28.3913 36.6661 27.857 36.4089C27.3109 36.1402 26.6281 36.0059 25.8087 36.0059C24.9604 36.0059 24.2551 36.1402 23.6929 36.4089C23.1486 36.6589 22.7043 37.0847 22.4315 37.6179C22.1507 38.1552 22.0103 38.8269 22.0103 39.6329V40.3987C22.0103 41.118 22.1594 41.7202 22.4577 42.2052C22.7355 42.6623 23.1087 43.0541 23.5518 43.3537C24.1016 43.7102 24.6737 44.0309 25.2646 44.3139L25.4158 44.3895L25.4641 44.4157C25.4828 44.4269 25.5028 44.4361 25.5236 44.4429C25.988 44.6687 26.4364 44.9262 26.8656 45.2136C27.2101 45.4494 27.502 45.7541 27.723 46.1083C27.9546 46.4974 28.0706 46.9444 28.0575 47.3969V48.3249C28.0575 49.0798 27.8724 49.6441 27.5023 50.0175C27.1322 50.391 26.5734 50.5777 25.8258 50.5777C25.0561 50.5777 24.4828 50.391 24.106 50.0175C23.7292 49.6441 23.5404 49.0798 23.5397 48.3249V47.5481H22.0083V48.3249C22.0083 49.1436 22.1487 49.8264 22.4294 50.3732C22.6997 50.9105 23.1425 51.3415 23.6868 51.5973C24.2511 51.866 24.961 52.0003 25.8167 52.0003C26.6584 52.0003 27.3572 51.8636 27.9134 51.5903C28.4549 51.3326 28.8952 50.9018 29.1648 50.3661C29.4408 49.8241 29.5792 49.1433 29.5799 48.3239V47.3314C29.5799 46.6201 29.4502 46.0156 29.1909 45.5179C28.9514 45.0462 28.6108 44.633 28.1935 44.3079Z" fill="#40465B"/>
<path d="M36.6738 48.4003C36.6738 49.0975 36.5059 49.6184 36.1701 49.9629C35.8342 50.3075 35.3274 50.4801 34.6497 50.4808C33.9814 50.4808 33.4803 50.3082 33.1465 49.9629C32.8126 49.6177 32.6447 49.0968 32.6427 48.4003V36.1619H31.0891V48.3247C31.0891 49.1435 31.2201 49.8263 31.482 50.373C31.7278 50.9016 32.1435 51.3326 32.6629 51.5971C33.1881 51.8658 33.8494 52.0002 34.6467 52.0002C35.444 52.0002 36.1073 51.8635 36.6365 51.5901C37.1575 51.3243 37.5761 50.894 37.8274 50.366C38.0961 49.8239 38.2304 49.1432 38.2304 48.3237V36.1619H36.6738V48.4003Z" fill="#40465B"/>
<path d="M41.8385 36.1619H40.2859V51.839H41.8385V36.1619Z" fill="#40465B"/>
<path d="M44.0066 37.6067H47.0362V51.839H48.5888V37.6067H51.6184V36.1619H44.0066V37.6067Z" fill="#40465B"/>
<path d="M59.8559 37.6067V36.1619H54.6803H54.1957H53.1277V51.839H54.1957H54.6803H59.8559V50.3942H54.6803V44.7772H59.3169V43.3324H54.6803V37.6067H59.8559Z" fill="#40465B"/>
<defs>
<linearGradient id="paint0_linear_501_3145" x1="27.8565" y1="0.71635" x2="27.8565" y2="31.2202" gradientUnits="userSpaceOnUse">
<stop offset="0.22" stop-color="#0095D9"/>
<stop offset="0.51" stop-color="#6E2FD1"/>
<stop offset="0.79" stop-color="#EE1C25"/>
</linearGradient>
</defs>
</svg>
