<svg width="160" height="160" viewBox="0 0 160 160" fill="none" xmlns="http://www.w3.org/2000/svg">
<g id="CadeadoViewBox" clip-path="url(#clip0_10_100)">
<g id="Cadeado">
<g id="CadeadoGancho">
<path id="Vector" d="M94.67 53.03V66.23H92.67V53.03H94.67ZM93.57 49.85C93.41 48.36 93.08 46.89 92.57 45.48C92.38 44.96 91.81 44.69 91.29 44.88C91.28 44.88 91.27 44.89 91.26 44.9C90.76 45.1 90.5 45.65 90.69 46.16C91.14 47.42 91.44 48.73 91.58 50.06C91.63 50.57 92.07 50.96 92.57 50.96C92.59 50.96 92.61 50.96 92.62 50.96C92.64 50.96 92.65 50.96 92.67 50.96C93.22 50.9 93.62 50.41 93.56 49.86L93.57 49.85Z" fill="#4CE0DC"/>
<path id="Vector_2" d="M92.63 50.95C92.63 50.95 92.59 50.95 92.58 50.95C92.07 50.95 91.6399 50.57 91.59 50.05C91.45 48.72 91.15 47.4 90.7 46.15C90.52 45.64 90.7799 45.09 91.27 44.89C89.85 41.55 87.42 38.75 84.37 36.84C82.63 35.75 80.69 34.95 78.61 34.52C77.88 34.37 77.13 34.27 76.36 34.22C76.32 34.75 75.91 35.2 75.35 35.15H75.01C71.07 35.15 67.25 36.55 64.25 39.09C64.06 39.25 63.83 39.33 63.6 39.33C63.37 39.33 63.18 39.24 63 39.1C62.45 39.63 61.92 40.19 61.43 40.79C61.74 41.13 61.8 41.65 61.51 42.04C60.72 43.13 60.07 44.3 59.56 45.54C59.4 45.93 59.03 46.16 58.63 46.16C58.56 46.16 58.5 46.13 58.43 46.12C57.73 48.06 57.33 50.13 57.33 52.28V56.98H55.33V70.77H52.83V81.41H61.83V52.2C61.83 45.12 67.26 39.02 74.33 38.67C81.89 38.3 88.16 44.34 88.16 51.82V66.24H92.66V51.82C92.66 51.53 92.63 51.25 92.62 50.97L92.63 50.95Z" fill="#11358F"/>
<path id="Vector_3" d="M61.43 40.77C61.74 41.11 61.8 41.63 61.51 42.02C60.72 43.11 60.07 44.28 59.56 45.52C59.4 45.91 59.03 46.14 58.63 46.14C58.56 46.14 58.5 46.11 58.43 46.1C58.37 46.09 58.31 46.09 58.25 46.06C57.74 45.85 57.49 45.27 57.7 44.76C58.26 43.37 59 42.05 59.88 40.84C60.2 40.39 60.83 40.29 61.28 40.62C61.34 40.66 61.37 40.72 61.42 40.77H61.43ZM75.4 33.14H75.01C70.6 33.14 66.32 34.7 62.95 37.55C62.53 37.91 62.48 38.54 62.83 38.96C62.88 39.01 62.94 39.04 62.99 39.08C63.17 39.22 63.37 39.31 63.59 39.31C63.81 39.31 64.05 39.23 64.24 39.07C67.24 36.53 71.06 35.13 75 35.13H75.34C75.9 35.18 76.32 34.74 76.35 34.2C76.35 34.18 76.35 34.17 76.35 34.16C76.36 33.61 75.93 33.15 75.37 33.14H75.4Z" fill="white"/>
<path id="Vector_4" d="M97.1699 51.8V66.22C97.1699 67.43 96.1899 68.4 94.9899 68.4H90.3599C89.1499 68.4 88.1799 67.42 88.1799 66.22H94.6799V53.02H92.6799V51.79C92.6799 51.5 92.6499 51.22 92.6399 50.94C92.6599 50.94 92.6699 50.94 92.6899 50.94C93.2399 50.88 93.6399 50.39 93.5799 49.84C93.4199 48.35 93.0899 46.88 92.5799 45.47C92.3899 44.95 91.8199 44.68 91.2999 44.87C91.2899 44.87 91.2799 44.88 91.2699 44.89C89.8499 41.55 87.4199 38.75 84.3699 36.84C82.6299 35.75 80.6899 34.95 78.6099 34.52C77.8799 34.37 77.1299 34.27 76.3599 34.22C76.3599 34.2 76.3599 34.19 76.3599 34.18C76.3699 33.63 75.9399 33.17 75.3799 33.16H74.9899C70.5799 33.16 66.2999 34.72 62.9299 37.57C62.5099 37.93 62.4599 38.56 62.8099 38.98C62.8599 39.03 62.9199 39.06 62.9699 39.1C62.4199 39.63 61.8899 40.19 61.3999 40.79C61.3499 40.74 61.3199 40.68 61.2599 40.64C60.8099 40.32 60.1899 40.42 59.8599 40.86C58.9799 42.08 58.2399 43.4 57.6799 44.78C57.4699 45.29 57.7199 45.87 58.2299 46.08C58.2899 46.1 58.3499 46.1 58.4099 46.12C57.7099 48.06 57.3099 50.13 57.3099 52.28V56.98H55.3099V70.77H52.8099V52.36C52.8099 40.36 62.1299 30.12 74.1199 29.67C86.7299 29.19 97.1399 39.31 97.1399 51.82L97.1699 51.8Z" fill="#0CB1F5"/>
</g>
<g id="CadeadoCorpo">
<path id="Vector_5" d="M103.04 124.53V127.92H61.85V75.22H65.02V124.53H103.04Z" fill="#0CB1F5"/>
<path id="Vector_6" d="M82.7 101.79C83.19 101.77 83.66 101.69 84.11 101.56C83.68 101.43 83.26 101.25 82.88 101.03L82.7 101.79Z" fill="#11358F"/>
<path id="Vector_7" d="M61.84 75.22V127.92H51.67C48.12 127.92 45.24 125.04 45.24 121.49V79.89H52.84V75.23H61.84V75.22ZM86.84 99.8C87.29 99.29 87.65 98.7 87.91 98.06C88.17 97.39 88.32 96.67 88.32 95.91C88.32 92.66 85.68 90.02 82.43 90.02C81.35 90.02 80.35 90.31 79.48 90.82C77.72 91.84 76.54 93.73 76.54 95.91C76.54 98.09 77.74 100.01 79.52 101.03L76.83 112.3H88.02L85.33 101.03C85.9 100.71 86.4 100.29 86.83 99.81L86.84 99.8Z" fill="#11358F"/>
<path id="Vector_8" d="M66.72 75.22H65.02V124.52H103.04V75.22H66.72ZM89.04 102.47L91.39 112.3H76.85L79.54 101.03C77.76 100.02 76.56 98.11 76.56 95.91C76.56 93.71 77.74 91.84 79.5 90.82C80.37 90.32 81.37 90.02 82.45 90.02H85.79C89.04 90.02 91.68 92.66 91.68 95.91C91.68 98.1 90.48 100.01 88.7 101.03L89.04 102.47ZM100.89 115.17H98.74V80.08H66.72V77.08H100.89V115.17ZM52.85 79.89H45.25V75.23H52.85V79.89Z" fill="#4CE0DC"/>
<path id="Vector_9" d="M89.0299 102.47L91.3799 112.31H88.0399L85.5299 101.79L85.3499 101.03C85.9099 100.71 86.4199 100.29 86.8499 99.81C87.2999 99.3 87.6699 98.71 87.9199 98.06C88.1799 97.4 88.3299 96.67 88.3299 95.92C88.3299 92.66 85.6899 90.03 82.4399 90.03H85.7899C89.0399 90.03 91.6699 92.66 91.6699 95.92C91.6699 98.11 90.4699 100.02 88.6899 101.03L89.0299 102.47Z" fill="white"/>
<path id="Vector_10" d="M66.72 77.08V80.08H98.74V115.17H100.88V77.08H66.72Z" fill="white"/>
</g>
</g>
<path id="Vector_11" d="M107.176 67.5743C106.946 66.8543 107.306 66.0843 107.996 65.7943L119.036 61.0443C120.486 60.4243 122.156 61.1943 122.626 62.6943C123.096 64.1943 122.166 65.7643 120.636 66.0843L108.876 68.5543C108.146 68.7043 107.406 68.2843 107.186 67.5643L107.176 67.5743ZM106.586 63.6743L114.146 54.3343C115.136 53.1143 114.856 51.3143 113.556 50.4443C112.236 49.5743 110.456 50.0243 109.726 51.4243L104.166 62.0843C103.816 62.7543 104.036 63.5743 104.656 63.9843C105.286 64.3943 106.116 64.2643 106.596 63.6843L106.586 63.6743ZM107.196 74.2843L117.436 80.5843C118.776 81.4043 120.526 80.9043 121.216 79.4943C121.916 78.0743 121.226 76.3643 119.746 75.8243L108.466 71.6743C107.766 71.4143 106.976 71.7343 106.646 72.4043C106.316 73.0843 106.556 73.8943 107.196 74.2843Z" fill="#4CE0DC"/>
</g>
<defs>
<clipPath id="clip0_10_100">
<rect width="160" height="160" fill="white"/>
</clipPath>
</defs>
</svg>
